HIERARCHY
ROOT Hips
{
  OFFSET 31.5945 99.0598 -4.85531
  CHANNELS 6 Xposition Yposition Zposition Zrotation Xrotation Yrotation
  JOINT spine
  {
    OFFSET 0 8.30104 0.477351
    CHANNELS 3 Zrotation Xrotation Yrotation
    JOINT spine1
    {
      OFFSET 0 10.4565 0
      CHANNELS 3 Zrotation Xrotation Yrotation
      JOINT spine2
      {
        OFFSET 0 10.0192 0
        CHANNELS 3 Zrotation Xrotation Yrotation
        JOINT Neck
        {
          OFFSET 0 25.7235 1.22641
          CHANNELS 3 Zrotation Xrotation Yrotation
          JOINT Head
          {
            OFFSET 0 7.77175 0
            CHANNELS 3 Zrotation Xrotation Yrotation
            End Site
            {
              OFFSET 0 18.812 -6.20394
            }
          }
        }
        JOINT RightShoulder
        {
          OFFSET -4.2188 10.82 -0.587439
          CHANNELS 3 Zrotation Xrotation Yrotation
          JOINT RightArm
          {
            OFFSET 0 14.1914 0
            CHANNELS 3 Zrotation Xrotation Yrotation
            JOINT RightArmRoll
            {
              OFFSET 0 7.16408 0
              CHANNELS 3 Zrotation Xrotation Yrotation
              JOINT RightForeArm
              {
                OFFSET 0 20.8665 0
                CHANNELS 3 Zrotation Xrotation Yrotation
                JOINT RightForeArmRoll
                {
                  OFFSET 0 8.03921 0
                  CHANNELS 3 Zrotation Xrotation Yrotation
                  JOINT RightHand
                  {
                    OFFSET 0 16.133 0
                    CHANNELS 3 Zrotation Xrotation Yrotation
                    End Site
                    {
                      OFFSET 0 0 0
                    }
                  }
                }
              }
            }
          }
        }
        JOINT LeftShoulder
        {
          OFFSET 4.2188 10.82 -0.587439
          CHANNELS 3 Zrotation Xrotation Yrotation
          JOINT LeftArm
          {
            OFFSET 0 14.1914 0
            CHANNELS 3 Zrotation Xrotation Yrotation
            JOINT LeftArmRoll
            {
              OFFSET 0 7.16408 0
              CHANNELS 3 Zrotation Xrotation Yrotation
              JOINT LeftForeArm
              {
                OFFSET 0 20.8665 0
                CHANNELS 3 Zrotation Xrotation Yrotation
                JOINT LeftForeArmRoll
                {
                  OFFSET 0 8.03921 0
                  CHANNELS 3 Zrotation Xrotation Yrotation
                  JOINT LeftHand
                  {
                    OFFSET 0 16.133 0
                    CHANNELS 3 Zrotation Xrotation Yrotation
                    End Site
                    {
                      OFFSET 0 0 0
                    }
                  }
                }
              }
            }
          }
        }
      }
    }
  }
  JOINT RightUpLeg
  {
    OFFSET -7.35773 -1.34921 -1.13181
    CHANNELS 3 Zrotation Xrotation Yrotation
    JOINT RightUpLegRoll
    {
      OFFSET 0 18.9168 0
      CHANNELS 3 Zrotation Xrotation Yrotation
      JOINT RightLeg
      {
        OFFSET 0 -23.4256 0
        CHANNELS 3 Zrotation Xrotation Yrotation
        JOINT RightLegRoll
        {
          OFFSET 0 23.5023 0
          CHANNELS 3 Zrotation Xrotation Yrotation
          JOINT RightFoot
          {
            OFFSET 0 19.5617 0
            CHANNELS 3 Zrotation Xrotation Yrotation
            JOINT RightToeBase
            {
              OFFSET 0 16.3526 0
              CHANNELS 3 Zrotation Xrotation Yrotation
              End Site
              {
                OFFSET 0.00693125 7.91943 -0.912837
              }
            }
          }
        }
      }
    }
  }
  JOINT LeftUpLeg
  {
    OFFSET 7.35773 -1.34921 -1.13181
    CHANNELS 3 Zrotation Xrotation Yrotation
    JOINT LeftUpLegRoll
    {
      OFFSET 0 18.9169 0
      CHANNELS 3 Zrotation Xrotation Yrotation
      JOINT LeftLeg
      {
        OFFSET 0 23.4255 0
        CHANNELS 3 Zrotation Xrotation Yrotation
        JOINT LeftLegRoll
        {
          OFFSET 0 23.7195 0
          CHANNELS 3 Zrotation Xrotation Yrotation
          JOINT LeftFoot
          {
            OFFSET 0 19.3444 0
            CHANNELS 3 Zrotation Xrotation Yrotation
            JOINT LeftToeBase
            {
              OFFSET 0 16.3526 0
              CHANNELS 3 Zrotation Xrotation Yrotation
              End Site
              {
                OFFSET -0.0310629 7.91944 -0.912837
              }
            }
          }
        }
      }
    }
  }
}
MOTION
Frames: 6
Frame Time: 0.00208333
33.4955 120.205 6.43136 0.7537 -1.91686 5.58286 0.0748064 -0.697655 0.439855 0.163642 2.60872 0.866064 0.153419 4.25371 0.864026 1.03855 14.0892 -3.89377 -2.68096 -10.6341 -4.10935 69.4925 -2.77511 -2.64757 94.3483 17.3893 18.7932 -7.84518e-006 2.71086e-006 -4.22526e-008 15.7706 4.33205 -0.534299 -1.65595e-006 -8.79199e-006 -3.01269 8.02915 -4.95141 0.697672 -62.424 2.57197 -1.00748 -98.5619 9.41951 -9.27641 3.57812e-015 1.59028e-015 -4.77083e-015 -14.2685 19.5842 2.97889 6.48265e-006 2.34501e-006 3 -8.02896 -4.95143 -0.697675 171.699 1.26688 3.40743 180 -1.52554e-005 178.786 176.76 10.0097 179.646 4.9539e-006 -5.89571e-006 0.111238 -17.5186 66.4465 18.3189 8.13649 25.2327 -3.48774 -169.647 7.49062 -4.4835 4.54188e-006 -4.6773e-006 -1.19142 -4.65458 -18.1267 0.0881292 -2.07828e-006 -6.62033e-007 -0.284113 17.9393 67.1002 -18.8174 -8.13649 25.2327 3.48774 
33.4803 120.036 6.42487 0.747218 -1.93318 5.59136 0.0763297 -0.696807 0.438719 0.166103 2.61049 0.863882 0.15591 4.25548 0.861802 1.0464 14.1525 -3.90152 -2.66309 -10.6589 -4.11139 69.4986 -2.77191 -2.64648 94.3235 17.3914 18.7577 -7.84518e-006 2.71086e-006 -4.22526e-008 15.8028 4.37216 -0.541423 -1.65595e-006 -8.79199e-006 -3.01269 8.02915 -4.95141 0.697672 -62.3979 2.54918 -0.998347 -98.5763 9.40332 -9.25219 8.15017e-015 1.19271e-015 -3.18055e-015 -14.2771 19.6573 2.9906 6.48265e-006 2.34501e-006 3 -8.02896 -4.95143 -0.697675 171.694 1.26138 3.40557 180 -1.52554e-005 178.787 176.762 9.9779 179.645 4.9539e-006 -5.89571e-006 0.110269 -17.5184 66.4457 18.3185 8.13649 25.2327 -3.48774 -169.624 7.46248 -4.50008 4.54188e-006 -4.6773e-006 -1.1926 -4.65523 -18.1136 0.0878765 -2.07828e-006 -6.62033e-007 -0.283926 17.9366 67.0954 -18.8138 -8.13649 25.2327 3.48774 
33.499 119.908 6.43403 0.740668 -1.94966 5.59795 0.0780482 -0.696071 0.437462 0.168742 2.612 0.861493 0.158581 4.25699 0.859367 1.04768 14.2173 -3.9072 -2.63984 -10.6833 -4.11208 69.5005 -2.76863 -2.645 94.3041 17.3956 18.7222 -7.84518e-006 2.71086e-006 -4.22526e-008 15.8332 4.40769 -0.54777 -1.65595e-006 -8.79199e-006 -3.01269 8.02915 -4.95141 0.697672 -62.3726 2.52309 -0.987234 -98.5914 9.38649 -9.22734 -1.98785e-016 -3.97569e-016 -6.36111e-015 -14.2862 19.7309 3.00244 6.48265e-006 2.34501e-006 3 -8.02896 -4.95143 -0.697675 171.687 1.25681 3.40609 180 -1.52554e-005 178.787 176.762 9.94894 179.645 4.9539e-006 -5.89571e-006 0.109316 -17.5172 66.4433 18.317 8.13649 25.2327 -3.48774 -169.599 7.43471 -4.51846 4.54188e-006 -4.6773e-006 -1.19379 -4.65666 -18.1047 0.0873464 -2.07828e-006 -6.62033e-007 -0.283733 17.9347 67.0916 -18.811 -8.13649 25.2327 3.48774 
33.4825 119.732 6.42708 0.734009 -1.96635 5.60292 0.079961 -0.695389 0.436109 0.171595 2.61337 0.858936 0.161468 4.25836 0.856761 1.04318 14.2832 -3.9111 -2.61203 -10.7075 -4.11165 69.4983 -2.76538 -2.6432 94.2899 17.4012 18.6867 -7.84518e-006 2.71086e-006 -4.22526e-008 15.8618 4.43963 -0.55351 -1.65595e-006 -8.79199e-006 -3.01268 8.02915 -4.95141 0.697672 -62.348 2.49425 -0.974451 -98.607 9.3692 -9.20191 -7.95139e-016 -2.38542e-015 -4.77083e-015 -14.2957 19.8051 3.01441 6.48265e-006 2.34501e-006 3 -8.02896 -4.95143 -0.697675 171.68 1.25346 3.4089 180 -1.52554e-005 178.787 176.76 9.92361 179.645 4.9539e-006 -5.89571e-006 0.108405 -17.5151 66.4398 18.3147 8.13649 25.2327 -3.48774 -169.573 7.40751 -4.53852 4.54188e-006 -4.6773e-006 -1.19501 -4.65868 -18.0998 0.0865925 -2.07828e-006 -6.62033e-007 -0.283542 17.9334 67.0886 -18.8088 -8.13649 25.2327 3.48774 
33.4983 119.581 6.42267 0.727202 -1.98333 5.60656 0.0820673 -0.694703 0.434687 0.174701 2.61471 0.856254 0.164609 4.2597 0.854025 1.03367 14.35 -3.91351 -2.58044 -10.7317 -4.11035 69.4921 -2.76228 -2.64114 94.2808 17.408 18.6511 -7.84518e-006 2.71086e-006 -4.22526e-008 15.8886 4.46901 -0.558815 -1.65595e-006 -8.79199e-006 -3.01268 8.02915 -4.95141 0.697672 -62.3242 2.46323 -0.960306 -98.623 9.35168 -9.17599 5.36719e-015 3.97569e-016 -3.18055e-015 -14.3055 19.8799 3.02651 6.48265e-006 2.34501e-006 3 -8.02896 -4.95143 -0.697675 171.672 1.2516 3.41385 180 -1.52554e-005 178.787 176.756 9.90262 179.646 4.9539e-006 -5.89571e-006 0.10756 -17.5122 66.4353 18.3117 8.13649 25.2327 -3.48774 -169.545 7.3811 -4.56014 4.54188e-006 -4.6773e-006 -1.19626 -4.66108 -18.099 0.0856685 -2.07828e-006 -6.62033e-007 -0.283362 17.9327 67.0862 -18.8071 -8.13649 25.2327 3.48774 
33.4723 119.407 6.41697 0.720206 -2.00064 5.60918 0.0843661 -0.693957 0.433224 0.178097 2.61615 0.853488 0.168042 4.26115 0.8512 1.01993 14.4171 -3.91472 -2.54589 -10.7558 -4.10842 69.482 -2.75943 -2.63889 94.2767 17.4156 18.6156 -7.84518e-006 2.71086e-006 -4.22526e-008 15.9138 4.49682 -0.563855 -1.65595e-006 -8.79199e-006 -3.01268 8.02915 -4.95141 0.697672 -62.3013 2.43058 -0.945108 -98.6393 9.33412 -9.14964 -7.15625e-015 -2.78299e-015 -0 -14.3155 19.9554 3.03875 6.48265e-006 2.34501e-006 3 -8.02896 -4.95143 -0.697675 171.663 1.25152 3.42086 180 -1.52554e-005 178.787 176.75 9.88675 179.646 4.9539e-006 -5.89571e-006 0.106807 -17.5089 66.4301 18.3083 8.13649 25.2327 -3.48774 -169.516 7.35567 -4.5832 4.54188e-006 -4.6773e-006 -1.19753 -4.66365 -18.1021 0.0846278 -2.07828e-006 -6.62033e-007 -0.283201 17.9323 67.0844 -18.8057 -8.13649 25.2327 3.48774 
